<?xml version="1.0" encoding="UTF-8" standalone="no"?>
<!-- Generator: Adobe Illustrator 19.1.0, SVG Export Plug-In . SVG Version: 6.00 Build 0)  -->

<svg
   xmlns:dc="http://purl.org/dc/elements/1.1/"
   xmlns:cc="http://creativecommons.org/ns#"
   xmlns:rdf="http://www.w3.org/1999/02/22-rdf-syntax-ns#"
   xmlns:svg="http://www.w3.org/2000/svg"
   xmlns="http://www.w3.org/2000/svg"
   xmlns:sodipodi="http://sodipodi.sourceforge.net/DTD/sodipodi-0.dtd"
   xmlns:inkscape="http://www.inkscape.org/namespaces/inkscape"
   version="1.1"
   id="Layer_1"
   x="0px"
   y="0px"
   viewBox="0 0 32 32"
   style="enable-background:new 0 0 32 32;"
   xml:space="preserve"
   inkscape:version="0.91 r13725"
   sodipodi:docname="icon-google-plus.svg"><metadata
     id="metadata9"><rdf:RDF><cc:Work
         rdf:about=""><dc:format>image/svg+xml</dc:format><dc:type
           rdf:resource="http://purl.org/dc/dcmitype/StillImage" /></cc:Work></rdf:RDF></metadata><defs
     id="defs7" /><sodipodi:namedview
     pagecolor="#ffffff"
     bordercolor="#666666"
     borderopacity="1"
     objecttolerance="10"
     gridtolerance="10"
     guidetolerance="10"
     inkscape:pageopacity="0"
     inkscape:pageshadow="2"
     inkscape:window-width="1920"
     inkscape:window-height="1017"
     id="namedview5"
     showgrid="false"
     inkscape:zoom="7.375"
     inkscape:cx="16"
     inkscape:cy="16"
     inkscape:window-x="-8"
     inkscape:window-y="-8"
     inkscape:window-maximized="1"
     inkscape:current-layer="layer1" /><g
     inkscape:groupmode="layer"
     id="layer1"
     inkscape:label="Layer 1"><path
       style="enable-background:new 0 0 32 32;opacity:0.9;fill:#7477bf;fill-opacity:1;stroke:none;stroke-width:20;stroke-linecap:round;stroke-linejoin:miter;stroke-miterlimit:4;stroke-dasharray:none;stroke-dashoffset:0;stroke-opacity:1"
       id="path4137"
       sodipodi:type="arc"
       sodipodi:cx="16.067797"
       sodipodi:cy="15.932203"
       sodipodi:rx="15.79661"
       sodipodi:ry="15.525424"
       sodipodi:start="0.16443724"
       sodipodi:end="6.2635154"
       sodipodi:open="true"
       d="M 31.65132,18.473672 A 15.79661,15.525424 0 0 1 14.201681,31.348913 15.79661,15.525424 0 0 1 0.3125511,14.809397 15.79661,15.525424 0 0 1 16.484098,0.41217162 15.79661,15.525424 0 0 1 31.861351,15.626839" /><path
       d="m 18.55961,23.348865 c 0,-0.215574 0,-0.35929 -0.07186,-0.574864 -0.07186,-0.143716 -0.07186,-0.35929 -0.143716,-0.503006 -0.07186,-0.143716 -0.143716,-0.287432 -0.215574,-0.503006 -0.143716,-0.143716 -0.215574,-0.287432 -0.287432,-0.431148 -0.07186,-0.143716 -0.215574,-0.215574 -0.35929,-0.431148 -0.143716,-0.143716 -0.287432,-0.287432 -0.35929,-0.35929 -0.07186,-0.07186 -0.215574,-0.215574 -0.431148,-0.35929 -0.215574,-0.143716 -0.35929,-0.287432 -0.431148,-0.287432 -0.07186,0 -0.215574,-0.143716 -0.431148,-0.287432 -0.215574,-0.143716 -0.35929,-0.287432 -0.431148,-0.287432 -0.143716,0 -0.35929,0 -0.71858,0 -0.503006,0 -1.006012,0 -1.43716,0.07186 -0.503007,0.07186 -1.006013,0.143716 -1.509019,0.35929 -0.503006,0.143716 -0.934154,0.35929 -1.365303,0.646722 -0.4311475,0.287432 -0.7185795,0.574864 -0.9341535,1.006012 -0.215574,0.431148 -0.35929,0.934154 -0.35929,1.509018 0,0.646722 0.143716,1.221586 0.503006,1.652735 0.35929,0.503006 0.7904375,0.862296 1.2934445,1.149728 0.503006,0.287432 1.07787,0.503006 1.652734,0.646722 0.574865,0.143716 1.149729,0.215574 1.724593,0.215574 0.574864,0 1.07787,-0.07186 1.580876,-0.143716 0.503006,-0.143716 0.934154,-0.287432 1.365302,-0.574864 0.431148,-0.215574 0.790438,-0.574864 1.006012,-1.006012 0.215574,-0.431149 0.35929,-0.934155 0.35929,-1.509019 z M 16.906876,11.420436 c 0,-0.574865 -0.07186,-1.14973 -0.215574,-1.7964516 -0.143716,-0.646722 -0.35929,-1.221586 -0.646722,-1.79645 -0.287432,-0.574864 -0.646722,-1.07787 -1.149728,-1.43716 -0.503006,-0.35929 -1.07787,-0.5748643 -1.652734,-0.5748643 -0.862297,0 -1.509019,0.2874323 -2.012025,0.9341543 -0.503006,0.646722 -0.718581,1.365302 -0.718581,2.299456 0,0.431148 0.07186,0.862296 0.143717,1.3653026 0.07186,0.503006 0.287432,0.934155 0.503006,1.437161 0.215574,0.503006 0.503006,0.934154 0.790438,1.293444 0.287432,0.35929 0.646722,0.71858 1.077871,0.934154 0.431148,0.215574 0.862296,0.35929 1.365302,0.35929 0.862296,0 1.509018,-0.287432 1.940166,-0.862296 0.35929,-0.503006 0.574864,-1.221586 0.574864,-2.15574 z m -1.79645,-6.5390801 6.036073,0 -1.868309,1.0778705 -1.868308,0 c 0.646722,0.431148 1.149728,1.006012 1.509018,1.724592 0.35929,0.71858 0.574864,1.509018 0.574864,2.299456 0,0.6467226 -0.07186,1.2934456 -0.287432,1.7964516 -0.215574,0.503006 -0.503006,0.934154 -0.790438,1.293444 -0.287432,0.287432 -0.574864,0.646722 -0.934154,0.862296 -0.287432,0.287432 -0.574864,0.574864 -0.790438,0.862296 -0.215574,0.287432 -0.287432,0.574864 -0.287432,0.934154 0,0.215574 0.07186,0.503006 0.215574,0.71858 0.143716,0.215574 0.35929,0.431148 0.574864,0.646722 0.215574,0.215574 0.503006,0.431148 0.790438,0.646722 0.287432,0.215575 0.574864,0.503007 0.862296,0.790439 0.287432,0.287432 0.574864,0.574864 0.790439,0.934154 0.215574,0.35929 0.431148,0.71858 0.574864,1.149728 0.143716,0.431148 0.215574,0.934154 0.215574,1.43716 0,1.509018 -0.646722,2.802463 -1.940167,3.880333 -1.365302,1.221586 -3.305468,1.79645 -5.820499,1.79645 -0.574864,0 -1.07787,-0.07186 -1.652734,-0.143716 C 10.439654,27.516628 9.8647905,27.372914 9.3617845,27.15734 8.7869205,26.941766 8.2839145,26.654334 7.8527665,26.366902 7.4216185,26.07947 7.0623285,25.648322 6.7748965,25.145316 6.559322,24.714168 6.415606,24.211161 6.415606,23.564439 c 0,-0.574864 0.143716,-1.149728 0.5030065,-1.868308 0.287432,-0.574864 0.71858,-1.07787 1.293444,-1.509018 0.574864,-0.431148 1.293444,-0.790438 2.0120235,-1.006012 0.718581,-0.215574 1.437161,-0.35929 2.155741,-0.503006 0.646723,-0.07186 1.365303,-0.143716 2.083883,-0.215574 -0.574864,-0.790439 -0.862296,-1.437161 -0.862296,-2.083883 0,-0.143716 0,-0.215574 0,-0.35929 0,-0.07186 0.07186,-0.215574 0.07186,-0.287432 0,-0.07186 0.07186,-0.143716 0.143716,-0.287432 0.07186,-0.143716 0.07186,-0.215574 0.07186,-0.287432 -0.35929,0.07186 -0.71858,0.07186 -0.934154,0.07186 -1.365303,0 -2.515032,-0.431148 -3.5210435,-1.365302 -1.006012,-0.934154 -1.43716,-2.012024 -1.43716,-3.377327 0,-1.2934446 0.431148,-2.4431726 1.293444,-3.4491846 C 10.152226,6.1029444 11.230097,5.456222 12.523541,5.16879 13.385838,4.953216 14.248134,4.8813579 15.11043,4.8813579 Z m 14.299744,3.5210425 0,1.7964496 -3.521043,0 0,3.521044 -1.79645,0 0,-3.521044 -3.521042,0 0,-1.7964496 3.521042,0 0,-3.5210425 1.79645,0 0,3.5210425 3.521043,0 z"
       id="path3"
       inkscape:connector-curvature="0"
       style="fill:#ffffff;fill-opacity:1" /></g><g
     inkscape:groupmode="layer"
     id="layer2"
     inkscape:label="Layer 2" /></svg>