<?xml version="1.0" encoding="UTF-8" standalone="no"?>
<!-- Generator: Adobe Illustrator 19.1.0, SVG Export Plug-In . SVG Version: 6.00 Build 0)  -->

<svg
   xmlns:dc="http://purl.org/dc/elements/1.1/"
   xmlns:cc="http://creativecommons.org/ns#"
   xmlns:rdf="http://www.w3.org/1999/02/22-rdf-syntax-ns#"
   xmlns:svg="http://www.w3.org/2000/svg"
   xmlns="http://www.w3.org/2000/svg"
   xmlns:sodipodi="http://sodipodi.sourceforge.net/DTD/sodipodi-0.dtd"
   xmlns:inkscape="http://www.inkscape.org/namespaces/inkscape"
   version="1.1"
   id="Layer_1"
   x="0px"
   y="0px"
   viewBox="0 0 32 32"
   style="enable-background:new 0 0 32 32;"
   xml:space="preserve"
   inkscape:version="0.91 r13725"
   sodipodi:docname="icon-twitter.svg"><metadata
     id="metadata9"><rdf:RDF><cc:Work
         rdf:about=""><dc:format>image/svg+xml</dc:format><dc:type
           rdf:resource="http://purl.org/dc/dcmitype/StillImage" /></cc:Work></rdf:RDF></metadata><defs
     id="defs7" /><sodipodi:namedview
     pagecolor="#ffffff"
     bordercolor="#666666"
     borderopacity="1"
     objecttolerance="10"
     gridtolerance="10"
     guidetolerance="10"
     inkscape:pageopacity="0"
     inkscape:pageshadow="2"
     inkscape:window-width="1920"
     inkscape:window-height="1017"
     id="namedview5"
     showgrid="false"
     inkscape:zoom="7.375"
     inkscape:cx="16"
     inkscape:cy="16"
     inkscape:window-x="-8"
     inkscape:window-y="-8"
     inkscape:window-maximized="1"
     inkscape:current-layer="layer2" /><path
     style="opacity:0.9;fill:#ffffff;fill-opacity:1;stroke:none;stroke-width:20;stroke-linecap:round;stroke-linejoin:miter;stroke-miterlimit:4;stroke-dasharray:none;stroke-dashoffset:0;stroke-opacity:1"
     id="path4139"
     sodipodi:type="arc"
     sodipodi:cx="-17.016949"
     sodipodi:cy="-28.542374"
     sodipodi:rx="13.627119"
     sodipodi:ry="8.0677967"
     sodipodi:start="0.16443724"
     sodipodi:end="6.2635154"
     sodipodi:open="true"
     d="m -3.5736508,-27.221698 a 13.627119,8.0677967 0 0 1 -15.0531232,6.690628 13.627119,8.0677967 0 0 1 -11.98161,-8.594771 13.627119,8.0677967 0 0 1 13.950562,-7.481527 13.627119,8.0677967 0 0 1 13.2653562,7.906312" /><g
     inkscape:groupmode="layer"
     id="layer1"
     inkscape:label="Layer 1"><path
       style="enable-background:new 0 0 32 32;opacity:0.9;fill:#7477bf;fill-opacity:1;stroke:none;stroke-width:20;stroke-linecap:round;stroke-linejoin:miter;stroke-miterlimit:4;stroke-dasharray:none;stroke-dashoffset:0;stroke-opacity:1"
       id="path4144"
       sodipodi:type="arc"
       sodipodi:cx="16.204103"
       sodipodi:cy="16.072588"
       sodipodi:rx="15.797325"
       sodipodi:ry="15.92741"
       sodipodi:start="0.16443724"
       sodipodi:end="6.2635154"
       sodipodi:open="true"
       d="M 31.788333,18.67986 A 15.797325,15.92741 0 0 1 14.337903,31.888469 15.797325,15.92741 0 0 1 0.44814448,14.92071 15.797325,15.92741 0 0 1 16.620423,0.15070979 15.797325,15.92741 0 0 1 31.998373,15.759317" /></g><g
     inkscape:groupmode="layer"
     id="layer2"
     inkscape:label="Layer 2"><path
       d="m 28.635106,8.8193323 c -0.894525,0.372719 -1.789051,0.670894 -2.832664,0.745438 1.043613,-0.59635 1.789051,-1.56542 2.16177,-2.6835767 C 26.995143,7.477544 25.95153,7.8502633 24.833372,8.0738943 24.01339,7.104825 22.671602,6.5084746 21.329814,6.5084746 c -2.683577,0 -4.919891,2.1617697 -4.919891,4.9198904 0,0.372719 0.07455,0.745438 0.149088,1.118156 C 12.459102,12.322891 8.8809996,10.384751 6.4210538,7.4030002 5.973791,8.1484383 5.7501596,8.9684203 5.7501596,9.8629453 c 0,1.7145077 0.8945256,3.2053827 2.1617702,4.0999087 -0.8199818,0 -1.5654198,-0.223631 -2.236314,-0.59635 0,0 0,0.07455 0,0.07455 0,2.385403 1.7145073,4.323541 3.9508218,4.770804 -0.447263,0.07455 -0.819982,0.149087 -1.2672451,0.149087 -0.2981751,0 -0.5963503,0 -0.8945255,-0.07455 0.5963504,1.938139 2.4599456,3.354471 4.547172,3.429015 -1.639963,1.341789 -3.801734,2.087226 -6.1125918,2.087226 -0.3727191,0 -0.8199819,0 -1.1927008,-0.07455 2.1617702,1.416332 4.7708032,2.236314 7.5289236,2.236314 9.0198,0 13.939691,-7.45438 13.939691,-13.93969 0,-0.223632 0,-0.447263 0,-0.596351 0.969069,-0.745437 1.789051,-1.6399637 2.459945,-2.6090317 z"
       id="path3"
       inkscape:connector-curvature="0"
       style="fill:#ffffff;fill-opacity:1" /></g></svg>