<?xml version="1.0" encoding="UTF-8" standalone="no"?>
<!-- Generator: Adobe Illustrator 19.1.0, SVG Export Plug-In . SVG Version: 6.00 Build 0)  -->

<svg
   xmlns:dc="http://purl.org/dc/elements/1.1/"
   xmlns:cc="http://creativecommons.org/ns#"
   xmlns:rdf="http://www.w3.org/1999/02/22-rdf-syntax-ns#"
   xmlns:svg="http://www.w3.org/2000/svg"
   xmlns="http://www.w3.org/2000/svg"
   xmlns:sodipodi="http://sodipodi.sourceforge.net/DTD/sodipodi-0.dtd"
   xmlns:inkscape="http://www.inkscape.org/namespaces/inkscape"
   version="1.1"
   id="Line_2"
   x="0px"
   y="0px"
   viewBox="0 0 32 32"
   style="enable-background:new 0 0 32 32;"
   xml:space="preserve"
   inkscape:version="0.91 r13725"
   sodipodi:docname="icon-dashboard.svg"><metadata
     id="metadata14"><rdf:RDF><cc:Work
         rdf:about=""><dc:format>image/svg+xml</dc:format><dc:type
           rdf:resource="http://purl.org/dc/dcmitype/StillImage" /></cc:Work></rdf:RDF></metadata><defs
     id="defs12" /><sodipodi:namedview
     pagecolor="#ffffff"
     bordercolor="#666666"
     borderopacity="1"
     objecttolerance="10"
     gridtolerance="10"
     guidetolerance="10"
     inkscape:pageopacity="0"
     inkscape:pageshadow="2"
     inkscape:window-width="796"
     inkscape:window-height="480"
     id="namedview10"
     showgrid="false"
     inkscape:zoom="7.375"
     inkscape:cx="16"
     inkscape:cy="16"
     inkscape:window-x="0"
     inkscape:window-y="0"
     inkscape:window-maximized="0"
     inkscape:current-layer="Line_2" /><style
     type="text/css"
     id="style3">
	.st0{fill:#FFFFFF;}
</style><g
     id="_x31_0_20_"
     style="fill:#0000ff"><g
       id="g6"
       style="fill:#0000ff"><path
         class="st0"
         d="M25,18c1.7,0,3-1.3,3-3c0-1.7-1.3-3-3-3c-1.7,0-3,1.3-3,3C22,16.7,23.3,18,25,18z M24,14h2v2h-2V14z M25,26    c1.7,0,3-1.3,3-3c0-1.7-1.3-3-3-3c-1.7,0-3,1.3-3,3C22,24.7,23.3,26,25,26z M24,22h2v2h-2V22z M17,26c1.7,0,3-1.3,3-3    c0-1.7-1.3-3-3-3c-1.7,0-3,1.3-3,3C14,24.7,15.3,26,17,26z M16,22h2v2h-2V22z M28,0H6C3.8,0,2,1.8,2,4v24c0,2.2,1.8,4,4,4h22    c2.2,0,4-1.8,4-4V4C32,1.8,30.2,0,28,0z M30,28c0,1.1-0.9,2-2,2H6c-1.1,0-2-0.9-2-2V8h26V28z M30,6H4V4c0-1.1,0.9-2,2-2h22    c1.1,0,2,0.9,2,2V6z M17,18c1.7,0,3-1.3,3-3c0-1.7-1.3-3-3-3c-1.7,0-3,1.3-3,3C14,16.7,15.3,18,17,18z M16,14h2v2h-2V14z M9,26    c1.7,0,3-1.3,3-3c0-1.7-1.3-3-3-3c-1.7,0-3,1.3-3,3C6,24.7,7.3,26,9,26z M8,22h2v2H8V22z M9,18c1.7,0,3-1.3,3-3c0-1.7-1.3-3-3-3    c-1.7,0-3,1.3-3,3C6,16.7,7.3,18,9,18z M8,14h2v2H8V14z"
         id="path8"
         style="fill:#0000ff" /></g></g></svg>