<?xml version="1.0" encoding="UTF-8" standalone="no"?>
<svg
   xmlns:dc="http://purl.org/dc/elements/1.1/"
   xmlns:cc="http://creativecommons.org/ns#"
   xmlns:rdf="http://www.w3.org/1999/02/22-rdf-syntax-ns#"
   xmlns:svg="http://www.w3.org/2000/svg"
   xmlns="http://www.w3.org/2000/svg"
   xmlns:sodipodi="http://sodipodi.sourceforge.net/DTD/sodipodi-0.dtd"
   xmlns:inkscape="http://www.inkscape.org/namespaces/inkscape"
   enable-background="new 0 0 56.693 56.693"
   height="56.693px"
   id="Layer_1"
   version="1.1"
   viewBox="0 0 56.693 56.693"
   width="56.693px"
   xml:space="preserve"
   inkscape:version="0.91 r13725"
   sodipodi:docname="icon-facebook.svg"><metadata
     id="metadata9"><rdf:RDF><cc:Work
         rdf:about=""><dc:format>image/svg+xml</dc:format><dc:type
           rdf:resource="http://purl.org/dc/dcmitype/StillImage" /></cc:Work></rdf:RDF></metadata><defs
     id="defs7" /><sodipodi:namedview
     pagecolor="#ffffff"
     bordercolor="#666666"
     borderopacity="1"
     objecttolerance="10"
     gridtolerance="10"
     guidetolerance="10"
     inkscape:pageopacity="0"
     inkscape:pageshadow="2"
     inkscape:window-width="1920"
     inkscape:window-height="1017"
     id="namedview5"
     showgrid="false"
     inkscape:zoom="4.1627714"
     inkscape:cx="-20.298977"
     inkscape:cy="28.3465"
     inkscape:window-x="-8"
     inkscape:window-y="-8"
     inkscape:window-maximized="1"
     inkscape:current-layer="layer2" /><g
     inkscape:groupmode="layer"
     id="layer2"
     inkscape:label="Layer 2"><path
       style="opacity:1;fill:#7477bf;fill-opacity:1;stroke:none;stroke-width:20;stroke-linecap:round;stroke-linejoin:miter;stroke-miterlimit:4;stroke-dasharray:none;stroke-dashoffset:0;stroke-opacity:1"
       id="path4142"
       sodipodi:type="arc"
       sodipodi:cx="28.345098"
       sodipodi:cy="28.947062"
       sodipodi:rx="28.104876"
       sodipodi:ry="27.986164"
       sodipodi:start="0.16443724"
       sodipodi:end="6.2635154"
       d="M 56.070857,33.528318 A 28.104876,27.986164 0 0 1 25.024959,56.737257 28.104876,27.986164 0 0 1 0.31381706,26.923089 28.104876,27.986164 0 0 1 29.08577,0.97061767 28.104876,27.986164 0 0 1 56.444537,28.396612"
       sodipodi:open="true" /></g><g
     inkscape:groupmode="layer"
     id="layer1"
     inkscape:label="Layer 1"><path
       style="opacity:0.9;fill:#ffffff;fill-opacity:1"
       d="m 39.469102,21.018326 -7.645,0 0,-5.014 c 0,-1.883 1.248,-2.322 2.127,-2.322 0.877,0 5.395,0 5.395,0 l 0,-8.2779997 -7.43,-0.029 c -8.248,0 -10.125,6.1739997 -10.125,10.1249997 l 0,5.518 -4.77,0 0,8.53 4.77,0 c 0,10.947 0,24.137 0,24.137 l 10.033,0 c 0,0 0,-13.32 0,-24.137 l 6.77,0 0.875,-8.53 z"
       id="path3"
       inkscape:connector-curvature="0" /></g></svg>